<svg width="346" height="63" fill="none" xmlns="http://www.w3.org/2000/svg"><path d="M163.834 27.357v-2.262c-3.261-.09-5.704-.971-7.456-2.677a8.313 8.313 0 01-2.584-6.183c0-4.442 3.17-8.738 10.04-8.91V5.382h3.26v1.943c6.868.172 10.071 4.41 10.071 8.885s-3.203 8.706-10.071 8.885v2.262h-3.26zm0-17.148c-2.233 0-3.904.62-5.053 1.764a6.323 6.323 0 00-1.67 4.283c0 1.588.596 3.117 1.67 4.283 1.149 1.143 2.82 1.706 5.053 1.73V10.21zm3.26 12.06c2.232 0 3.902-.587 5.051-1.73a6.237 6.237 0 000-8.566c-1.149-1.145-2.819-1.732-5.051-1.764v12.06zm25.204 4.386V6.06h8.833a7.088 7.088 0 015.02 1.674A5.491 5.491 0 01208 12.03a5.775 5.775 0 01-1.849 4.417 6.99 6.99 0 01-5.02 1.7h-5.606v8.508h-3.227zm3.259-11.432h5.346c2.444 0 3.87-1.119 3.87-3.096 0-1.976-1.434-3.054-3.87-3.054h-5.346v6.15zm38.306 11.816a10.083 10.083 0 01-7.514-3.062 11.237 11.237 0 010-15.215 10.688 10.688 0 017.514-3.09c2.811 0 5.51 1.11 7.513 3.09a11.145 11.145 0 012.997 7.608c0 2.825-1.071 5.545-2.997 7.607a10.084 10.084 0 01-7.513 3.063v-.001zm0-3.03a6.817 6.817 0 005.109-2.18 7.72 7.72 0 002.086-5.472 7.604 7.604 0 00-2.086-5.446 7.031 7.031 0 00-5.109-2.205 7.019 7.019 0 00-5.11 2.205 7.593 7.593 0 00-2.054 5.446 7.695 7.695 0 002.054 5.472 6.816 6.816 0 005.11 2.18zm26.028 2.646V6.058h9.33c3.676 0 6.046 1.88 6.046 5.065a4.348 4.348 0 01-.69 2.553 4.328 4.328 0 01-2.039 1.677 5.293 5.293 0 013.226 1.92 5.329 5.329 0 011.149 3.584 5.235 5.235 0 01-.449 2.321 5.209 5.209 0 01-1.425 1.884 7.486 7.486 0 01-5.053 1.593h-10.095zm3.259-12.299h5.55c2.142 0 3.406-.938 3.406-2.678s-1.264-2.646-3.406-2.646h-5.55v5.324zm0 9.327h6.251c2.492 0 4.017-1.209 4.017-3.266 0-2.058-1.467-3.178-4.017-3.178h-6.283l.032 6.444zm39.612 3.356a10.08 10.08 0 01-7.514-3.062 11.237 11.237 0 01-2.965-7.607c0-2.82 1.059-5.536 2.965-7.608a10.69 10.69 0 017.514-3.088 10.69 10.69 0 017.513 3.088 11.14 11.14 0 012.999 7.608 11.14 11.14 0 01-2.999 7.607 10.095 10.095 0 01-3.437 2.322c-1.293.527-2.681.78-4.076.74zm0-3.03a6.827 6.827 0 005.109-2.18 7.72 7.72 0 002.086-5.472 7.605 7.605 0 00-2.086-5.446 7.037 7.037 0 00-5.109-2.205 7.016 7.016 0 00-5.11 2.205 7.583 7.583 0 00-2.053 5.446 7.7 7.7 0 002.053 5.472 6.831 6.831 0 005.11 2.18zm25.841 2.646V6.06h3.258v15.123L343.164 6.06H346v20.595h-3.259V11.474l-11.409 15.181h-2.729zM332.041 0h2.697a2.307 2.307 0 002.502 2.41 2.345 2.345 0 002.342-1.45c.125-.305.185-.631.176-.96h2.705c0 2.973-2.232 4.851-5.199 4.851-2.965 0-5.19-1.878-5.223-4.851zM86.337 62.62V42.026h16.706v20.597h-3.228V44.996H89.57V62.62h-3.234l.001.002zm34.803 0V42.026h8.842a7.091 7.091 0 015.02 1.633 5.491 5.491 0 011.849 4.296 5.779 5.779 0 01-1.849 4.418 6.993 6.993 0 01-5.02 1.697h-5.631v8.512l-3.211.04zm3.26-11.473h5.337c2.445 0 3.879-1.119 3.879-3.095 0-1.977-1.443-3.055-3.879-3.055h-5.386l.049 6.15zm40.947 11.85a10.119 10.119 0 01-7.521-3.056 11.259 11.259 0 01-2.956-7.607c0-2.818 1.055-5.533 2.956-7.607a10.703 10.703 0 017.517-3.087c2.812 0 5.512 1.109 7.517 3.087a11.163 11.163 0 012.991 7.608c0 2.825-1.069 5.544-2.991 7.608a10.104 10.104 0 01-7.513 3.053zm0-3.03a6.82 6.82 0 005.109-2.173 7.717 7.717 0 002.079-5.472 7.62 7.62 0 00-2.079-5.447 7.016 7.016 0 00-7.89-1.63 7.033 7.033 0 00-2.328 1.63 7.547 7.547 0 00-2.053 5.446 7.656 7.656 0 002.053 5.473 6.816 6.816 0 005.109 2.173zm26.951 2.654V42.025h8.833a7.091 7.091 0 015.02 1.633A5.49 5.49 0 01208 47.954a5.779 5.779 0 01-1.849 4.418 6.993 6.993 0 01-5.02 1.697h-5.606v8.512l-3.227.04zm3.259-11.474h5.346c2.444 0 3.87-1.119 3.87-3.095 0-1.977-1.434-3.055-3.87-3.055h-5.346v6.15zm27.478 11.474V42.025h3.259v7.121h4.605a8.008 8.008 0 015.639 1.878 6.765 6.765 0 011.532 7.52 6.754 6.754 0 01-1.532 2.224 8.063 8.063 0 01-5.606 1.853h-7.897zm3.259-2.973h4.434c2.901 0 4.579-1.38 4.579-3.74 0-2.36-1.735-3.789-4.579-3.789h-4.434v7.53zm15.092-17.623h3.26v20.597h-3.26V42.025zm18.505 20.596V42.025h9.33c3.676 0 6.046 1.877 6.046 5.055a4.35 4.35 0 01-2.729 4.238 5.293 5.293 0 013.226 1.92 5.328 5.328 0 011.149 3.584 5.241 5.241 0 01-1.874 4.206 7.487 7.487 0 01-5.053 1.594h-10.095v-.001zm3.259-12.3h5.55c2.142 0 3.406-.946 3.406-2.678 0-1.73-1.264-2.646-3.406-2.646h-5.55v5.325zm0 9.327h6.251c2.492 0 4.017-1.208 4.017-3.266s-1.467-3.177-4.017-3.177h-6.283l.032 6.443zM.823 10.355V7.398L0 7.784v-.998l.946-.48h.903v4.05H.823zm7.528 0V7.398l-.822.386v-.998l.945-.48h.897v4.05h-1.02zM.823 17.762v-2.948L0 15.189v-.996l.946-.48h.903v4.05H.823zm7.528 0v-2.948l-.822.375v-.996l.945-.48h.897v4.05h-1.02zm15.296.073a1.627 1.627 0 01-.978-.302 1.829 1.829 0 01-.61-.775 2.674 2.674 0 01-.196-1.02 2.142 2.142 0 01.815-1.798 1.63 1.63 0 01.978-.31c.349-.007.69.103.97.31.28.205.494.49.611.817.138.322.204.67.195 1.02a2.142 2.142 0 01-.815 1.797 1.573 1.573 0 01-.97.303v-.042zm.547-1.25c.135-.25.202-.531.195-.816a1.564 1.564 0 00-.195-.816.603.603 0 00-.547-.343.618.618 0 00-.553.343 1.55 1.55 0 00-.195.816c-.008.286.06.566.195.817a.636.636 0 00.553.343.618.618 0 00.547-.343zm-8.188-6.23V7.398l-.823.386v-.998l.944-.48h.905v4.05h-1.026zm7.496 0V7.398l-.824.386v-.998l.946-.48h.897v4.05h-1.02.001zm7.734.073c-.347.006-.687-.1-.97-.302a1.83 1.83 0 01-.611-.816 2.546 2.546 0 01-.196-1.029 2.16 2.16 0 01.815-1.797c.283-.201.623-.307.97-.302.35-.007.692.099.978.302a1.8 1.8 0 01.61.818c.133.321.2.664.196 1.011a2.165 2.165 0 01-.814 1.806 1.635 1.635 0 01-.978.302v.007zm.554-1.298a1.783 1.783 0 000-1.633.621.621 0 00-1.1 0 1.783 1.783 0 000 1.633.613.613 0 00.546.334.617.617 0 00.554-.334zm6.665 1.225V7.398l-.832.386v-.998l.946-.48h.904v4.05h-1.018zm7.65 0V7.398l-.823.386v-.998l.946-.48h.904v4.05h-1.026zm-15.179 7.407v-2.948l-.824.375v-.996l.946-.48h.905v4.05h-1.028.001zm-14.92 0v-2.948l-.823.375v-.996l.944-.48h.905v4.05h-1.026zm22.92.073a1.627 1.627 0 01-.977-.302 1.83 1.83 0 01-.612-.775 2.677 2.677 0 01-.18-.996 2.144 2.144 0 01.816-1.798 1.62 1.62 0 01.978-.308c.348-.008.69.101.97.308.282.206.493.49.611.818.137.321.205.67.196 1.02a2.142 2.142 0 01-.815 1.797 1.575 1.575 0 01-.97.302l-.017-.064v-.002zm.564-1.225c.135-.25.202-.532.195-.816a1.564 1.564 0 00-.196-.817.604.604 0 00-.871-.25.62.62 0 00-.229.25c-.138.25-.206.532-.196.817-.006.285.06.565.196.816a.634.634 0 00.554.343.62.62 0 00.546-.343h.001zm6.765 1.225a1.626 1.626 0 01-.979-.302 1.893 1.893 0 01-.61-.775 2.676 2.676 0 01-.172-.996 2.143 2.143 0 01.815-1.798 1.692 1.692 0 011.956 0c.282.206.493.49.611.818.133.323.2.67.196 1.02a2.144 2.144 0 01-.815 1.797 1.635 1.635 0 01-.978.302l-.025-.064.001-.002zm.57-1.225a1.52 1.52 0 00.195-.816 1.488 1.488 0 00-.195-.817.597.597 0 00-.546-.343.6.6 0 00-.546.343c-.142.248-.21.531-.196.817-.012.285.056.568.197.816a.62.62 0 00.545.343.602.602 0 00.546-.343zM30.91 25.242a1.562 1.562 0 01-.97-.31 1.852 1.852 0 01-.62-.816 2.65 2.65 0 01-.195-1.02 2.153 2.153 0 01.815-1.798c.28-.208.62-.318.969-.31.35-.005.694.104.978.31.273.195.485.465.611.776.132.324.199.672.196 1.021a2.146 2.146 0 01-.815 1.796 1.64 1.64 0 01-.978.312l.008.04h.001zm.545-1.314c.14-.248.209-.532.196-.817a1.504 1.504 0 00-.196-.817.598.598 0 00-.546-.343.602.602 0 00-.546.343c-.137.25-.204.533-.195.818-.007.283.06.566.195.816a.605.605 0 00.546.342.592.592 0 00.546-.342zM23.6 25.161v-2.948l-.824.383v-1.004l.945-.482h.898v4.05h-1.02v.001zm.13 15.043a1.626 1.626 0 01-.977-.302c-.269-.2-.48-.468-.612-.776a2.677 2.677 0 01-.196-1.021 2.168 2.168 0 01.815-1.805 1.732 1.732 0 011.956 0c.275.21.487.493.611.817.133.323.2.67.196 1.021a2.16 2.16 0 01-.815 1.796 1.634 1.634 0 01-.977.302v-.033.001zm.546-1.258a1.784 1.784 0 000-1.633.595.595 0 00-.546-.335.61.61 0 00-.545.335 1.783 1.783 0 000 1.633.612.612 0 00.546.334.594.594 0 00.545-.334zm-8.27 1.184v-2.956l-.823.384v-.996l.944-.482h.905v4.05h-1.026zm-7.655 0v-2.956l-.822.384v-.996l.945-.482h.897v4.05h-1.02zm15.38 14.872a1.628 1.628 0 01-.978-.303c-.269-.2-.48-.468-.612-.776a2.677 2.677 0 01-.196-1.021 2.168 2.168 0 01.815-1.804 1.733 1.733 0 011.956 0c.275.21.487.493.611.817.133.324.2.67.196 1.02a2.16 2.16 0 01-.815 1.797 1.634 1.634 0 01-.977.302v-.032zm.545-1.258a1.784 1.784 0 000-1.633.594.594 0 00-.546-.335.611.611 0 00-.545.334 1.783 1.783 0 000 1.633.612.612 0 00.546.335.594.594 0 00.545-.334zm29.751 1.258a1.628 1.628 0 01-.977-.303 1.829 1.829 0 01-.612-.776 2.676 2.676 0 01-.195-1.021 2.168 2.168 0 01.816-1.804c.284-.204.627-.308.977-.302.346-.006.687.1.969.302.278.207.49.491.611.817.141.321.21.668.205 1.02a2.17 2.17 0 01-.816 1.797 1.614 1.614 0 01-.969.302l-.009-.032zm.555-1.258a1.783 1.783 0 000-1.633.612.612 0 00-1.092 0 1.726 1.726 0 000 1.633.613.613 0 00.867.246.612.612 0 00.225-.246zM31.073 47.61a1.578 1.578 0 01-.97-.302 1.828 1.828 0 01-.611-.775 2.53 2.53 0 01-.195-1.021 2.17 2.17 0 01.814-1.805 1.63 1.63 0 01.97-.303c.35-.006.692.1.978.303.278.207.49.491.611.817.133.323.2.67.196 1.02a2.144 2.144 0 01-.815 1.797 1.634 1.634 0 01-.978.302v-.033zm.554-1.257c.135-.25.203-.532.196-.817a1.562 1.562 0 00-.196-.816.613.613 0 00-1.1 0 1.57 1.57 0 00-.196.816c-.006.284.06.566.197.817a.62.62 0 00.545.343.627.627 0 00.554-.343zm-15.621 8.575V51.98l-.823.376v-.997l.944-.482h.905v4.05h-1.026v.001zm-7.655 0V51.98l-.822.376v-.997l.945-.482h.897v4.05h-1.02v.001zm15.377 7.644a1.627 1.627 0 01-.978-.311c-.268-.2-.48-.468-.611-.776a2.651 2.651 0 01-.196-1.02 2.143 2.143 0 01.815-1.797 1.693 1.693 0 011.955 0c.27.198.482.466.612.776.132.324.198.67.196 1.02a2.143 2.143 0 01-.815 1.798 1.63 1.63 0 01-.978.309zm.546-1.299c.14-.248.208-.53.196-.816a1.506 1.506 0 00-.196-.817.596.596 0 00-.546-.343.602.602 0 00-.546.343 1.515 1.515 0 00-.196.817c-.013.285.055.568.196.816a.604.604 0 00.546.344.593.593 0 00.546-.344zm6.652 1.217v-2.95l-.824.385v-1.004l.946-.482h.905v4.05h-1.028.001zm-14.92 0v-2.95l-.823.385v-1.004l.944-.482h.905v4.05h-1.026zm-7.655 0v-2.95l-.822.385v-1.004l.945-.482h.897v4.05h-1.02zm30.104-37.33v-2.948l-.832.383v-1.004l.946-.482h.904v4.05h-1.018v.001zm7.8.081a1.628 1.628 0 01-.979-.31 1.897 1.897 0 01-.61-.816 2.65 2.65 0 01-.172-1.005 2.143 2.143 0 01.815-1.796 1.693 1.693 0 011.956 0c.273.195.484.464.611.775.132.324.199.671.196 1.02a2.144 2.144 0 01-.815 1.798 1.63 1.63 0 01-.978.31l-.025.026.001-.002zm.57-1.323a1.52 1.52 0 00.195-.816 1.505 1.505 0 00-.195-.816.597.597 0 00-.546-.344.601.601 0 00-.546.344c-.14.248-.21.53-.196.816-.012.285.056.568.197.816a.606.606 0 001.091 0zm7.202-6.084a1.624 1.624 0 01-.976-.302 1.83 1.83 0 01-.613-.775 2.68 2.68 0 01-.195-1.02 2.144 2.144 0 01.816-1.798 1.63 1.63 0 01.977-.31c.349-.007.69.103.97.31.281.205.494.49.612.817.14.322.209.669.202 1.02a2.152 2.152 0 01-.814 1.797 1.575 1.575 0 01-.97.303l-.009-.042zm.555-1.25c.135-.25.203-.531.196-.816a1.563 1.563 0 00-.196-.816.603.603 0 00-1.092 0 1.49 1.49 0 00-.205.816c-.009.287.062.57.205.817a.604.604 0 00.87.254.603.603 0 00.222-.254zm-.555 8.657a1.626 1.626 0 01-.976-.31 1.83 1.83 0 01-.613-.816 2.656 2.656 0 01-.195-1.02 2.144 2.144 0 01.816-1.798 1.63 1.63 0 01.977-.31c.349-.006.69.103.97.31.272.195.485.465.612.776.138.322.207.669.202 1.021a2.153 2.153 0 01-.814 1.796c-.28.208-.621.317-.97.31l-.009.041zm.555-1.338a1.65 1.65 0 00.196-.818 1.586 1.586 0 00-.196-.816.603.603 0 00-1.092 0c-.144.247-.215.53-.205.816-.009.287.062.57.205.818a.604.604 0 00.87.254.603.603 0 00.222-.254zm-.555 8.738a1.626 1.626 0 01-.976-.311 1.78 1.78 0 01-.613-.817 2.656 2.656 0 01-.195-1.02 2.143 2.143 0 01.816-1.797 1.63 1.63 0 01.977-.31c.349-.007.69.103.97.31.272.196.485.464.612.775.138.323.207.672.202 1.021a2.152 2.152 0 01-.814 1.798 1.58 1.58 0 01-.97.31l-.009.04zm.555-1.34c.137-.25.205-.531.196-.816a1.635 1.635 0 00-.196-.817.604.604 0 00-.87-.254.604.604 0 00-.222.254 1.53 1.53 0 00-.205.817c-.01.286.06.57.205.816a.604.604 0 00.87.254.603.603 0 00.222-.254zm-.555 8.902c-.35.007-.693-.1-.977-.303a1.829 1.829 0 01-.612-.775 2.676 2.676 0 01-.195-1.021 2.166 2.166 0 01.816-1.805c.284-.204.627-.309.977-.303.346-.005.687.1.969.303.278.207.49.491.611.817.141.322.21.669.205 1.021a2.167 2.167 0 01-.816 1.796 1.622 1.622 0 01-.969.302l-.009-.033v.001zm.555-1.258a1.783 1.783 0 000-1.633.613.613 0 00-.866-.247.613.613 0 00-.226.247 1.728 1.728 0 000 1.633.613.613 0 00.867.246.612.612 0 00.225-.246zm-.809-28.518c-.346.006-.686-.1-.968-.302a1.83 1.83 0 01-.611-.816 2.544 2.544 0 01-.197-1.029 2.16 2.16 0 01.815-1.797c.282-.2.623-.307.97-.302.35-.007.693.099.978.302a1.8 1.8 0 01.611.818c.133.321.2.664.195 1.011a2.166 2.166 0 01-.815 1.806 1.632 1.632 0 01-.977.302v.007zm.555-1.298a1.783 1.783 0 000-1.633.622.622 0 00-.872-.245.622.622 0 00-.228.245 1.783 1.783 0 000 1.633.62.62 0 001.1 0zM.823 25.16v-2.948L0 22.596v-1.004l.946-.482h.903v4.05H.824l-.001.001zm7.528 0v-2.948l-.822.383v-1.004l.945-.482h.897v4.05h-1.02v.001zm7.655 0v-2.948l-.823.383v-1.004l.944-.482h.905v4.05h-1.026v.001zM.823 32.56v-2.948L0 29.996v-1.004l.946-.483h.903v4.05H.823zm0 7.57v-2.955L0 37.558v-.996l.946-.482h.903v4.05H.823zm7.528-7.57v-2.948l-.822.385v-1.004l.945-.483h.897v4.05h-1.02zm7.655 0v-2.948l-.823.385v-1.004l.944-.483h.905v4.05h-1.026zM.823 47.546v-2.948L0 44.98v-1.003l.946-.476h.903v4.044H.823zm0 7.382V51.98L0 52.354v-.996l.946-.482h.903v4.05H.824l-.001.002zm0 7.522v-2.948L0 59.876v-.997l.946-.482h.903v4.05H.824l-.001.003zm38.495.073a1.627 1.627 0 01-.977-.302 1.83 1.83 0 01-.612-.777 2.677 2.677 0 01-.196-1.02 2.144 2.144 0 01.815-1.797 1.63 1.63 0 01.978-.31c.349-.006.69.103.97.31.274.193.487.463.611.776.138.322.206.67.197 1.02a2.144 2.144 0 01-.816 1.798 1.575 1.575 0 01-.97.302zm.546-1.29a1.63 1.63 0 00.196-.817 1.563 1.563 0 00-.196-.817.604.604 0 00-.87-.25.622.622 0 00-.23.25 1.565 1.565 0 00-.195.817c-.007.284.06.565.196.816a.635.635 0 00.553.343.618.618 0 00.546-.343zm6.795 1.29c-.35.007-.692-.1-.977-.302a1.83 1.83 0 01-.611-.777 2.679 2.679 0 01-.196-1.02 2.144 2.144 0 01.815-1.797 1.63 1.63 0 01.978-.31c.348-.006.69.103.97.31.274.193.487.463.611.776.14.321.209.67.203 1.02a2.152 2.152 0 01-.814 1.798 1.575 1.575 0 01-.97.302h-.01zm.555-1.29c.135-.251.202-.533.196-.817a1.564 1.564 0 00-.196-.817.604.604 0 00-.87-.254.603.603 0 00-.222.254c-.146.247-.217.53-.205.817-.01.286.062.569.205.816a.603.603 0 001.092 0zm-8.76-6.305V51.98l-.831.376v-.997l.946-.482h.904v4.05h-1.018v.001zm-7.528 0V51.98l-.824.376v-.997l.946-.482h.905v4.05h-1.028l.001.001zm15.18 0V51.98l-.824.376v-.997l.946-.482h.904v4.05h-1.026v.001zm7.357 7.522v-2.948l-.822.375v-.996l.945-.483h.905v4.05h-1.028v.002zM38.505 47.61a1.627 1.627 0 01-.978-.302 1.828 1.828 0 01-.611-.775 2.678 2.678 0 01-.195-1.021 2.167 2.167 0 01.814-1.805 1.63 1.63 0 01.977-.303c.348-.005.687.1.97.303.279.207.491.491.612.817.137.322.205.669.196 1.02a2.143 2.143 0 01-.815 1.797 1.576 1.576 0 01-.97.302v-.033zm.546-1.257c.135-.251.202-.531.196-.817a1.56 1.56 0 00-.196-.816.603.603 0 00-.546-.344.616.616 0 00-.554.344 1.57 1.57 0 00-.196.816c-.006.284.06.566.196.817a.636.636 0 00.554.343.619.619 0 00.546-.343zm7.054 1.176v-2.948l-.823.375v-.996l.946-.481h.904v4.05h-1.026zm-7.65-7.4v-2.955l-.832.384v-.996l.946-.482h.904v4.05h-1.018zm-7.529 0v-2.955l-.824.384v-.996l.946-.482h.905v4.05h-1.028.001zm15.18 0v-2.955l-.824.384v-.996l.946-.482h.904v4.05h-1.026zm-7.195-7.487a1.626 1.626 0 01-.978-.311 1.78 1.78 0 01-.611-.817 2.647 2.647 0 01-.196-1.02 2.142 2.142 0 01.815-1.797 1.63 1.63 0 01.978-.31c.348-.007.689.103.97.31.273.196.484.464.61.775.137.323.203.672.196 1.021a2.144 2.144 0 01-.815 1.798 1.58 1.58 0 01-.97.31v.04zm.546-1.34c.137-.25.204-.532.195-.816a1.637 1.637 0 00-.195-.817.603.603 0 00-.546-.343.618.618 0 00-.555.343c-.135.25-.202.532-.195.817-.01.285.058.567.195.816a.621.621 0 00.877.25.605.605 0 00.224-.25zm6.797 1.34a1.626 1.626 0 01-.978-.311 1.78 1.78 0 01-.611-.817 2.649 2.649 0 01-.195-1.02 2.143 2.143 0 01.814-1.797 1.63 1.63 0 01.977-.31c.35-.007.69.103.97.31.273.196.485.464.612.775.138.323.207.672.205 1.021a2.152 2.152 0 01-.816 1.798c-.28.208-.622.316-.97.31l-.008.04zm.555-1.34c.137-.25.205-.531.195-.816a1.638 1.638 0 00-.195-.817.604.604 0 00-.87-.254.604.604 0 00-.222.254 1.53 1.53 0 00-.205.817c-.01.286.06.57.205.816a.604.604 0 00.87.254.604.604 0 00.222-.254zm-24.13 1.257v-2.948l-.823.385v-1.004l.944-.483h.905v4.05h-1.027zm8.31.083a1.626 1.626 0 01-.978-.311 1.781 1.781 0 01-.611-.817 2.651 2.651 0 01-.196-1.02 2.144 2.144 0 01.815-1.797 1.693 1.693 0 011.955 0c.27.198.482.467.612.775.132.324.198.672.196 1.021a2.142 2.142 0 01-.815 1.798 1.63 1.63 0 01-.978.31v.04zm.546-1.34a1.59 1.59 0 00.196-.816 1.637 1.637 0 00-.196-.817.596.596 0 00-.546-.343.6.6 0 00-.546.343c-.14.248-.209.531-.196.817-.013.285.055.568.196.816a.603.603 0 00.546.343.594.594 0 00.546-.343zm22.24 16.308a1.578 1.578 0 01-.97-.302 1.827 1.827 0 01-.611-.775 2.526 2.526 0 01-.197-1.021 2.166 2.166 0 01.815-1.805c.284-.202.623-.308.97-.303.35-.006.693.1.978.303a1.8 1.8 0 01.611.817c.133.323.2.67.197 1.02a2.143 2.143 0 01-.815 1.797 1.634 1.634 0 01-.978.302v-.033zm.553-1.257c.136-.25.203-.532.197-.817a1.563 1.563 0 00-.197-.816.612.612 0 00-.875-.254.612.612 0 00-.225.254 1.56 1.56 0 00-.195.816c-.007.284.06.566.195.817a.613.613 0 00.875.252.613.613 0 00.225-.252zM8.351 47.546v-2.948l-.822.383v-1.003l.945-.476h.897v4.044h-1.02zm7.655 0v-2.948l-.823.383v-1.003l.944-.476h.905v4.044h-1.026zm7.641.064a1.628 1.628 0 01-.978-.309 1.781 1.781 0 01-.61-.776 2.65 2.65 0 01-.196-1.021 2.142 2.142 0 01.815-1.797 1.62 1.62 0 01.978-.309c.349-.008.69.102.97.309.272.196.484.465.611.776.135.323.203.671.195 1.021a2.143 2.143 0 01-.815 1.796c-.28.208-.621.318-.97.311v-.001zm.547-1.299c.138-.249.205-.531.195-.816a1.637 1.637 0 00-.195-.816.604.604 0 00-.547-.342.619.619 0 00-.553.342c-.135.25-.203.532-.195.817-.01.284.057.566.195.817a.622.622 0 00.876.25.604.604 0 00.224-.25v-.002zm78.612-15.246v-4.41H86.337V6.058h3.235v17.625H99.67V6.06h3.225v17.623h2.967v7.382h-3.056zm18.334-4.41V6.058h3.235v15.125L135.678 6.06h2.819v20.595h-3.235V11.474l-11.359 15.181h-2.765.002z" fill="#fff"/></svg>