<?xml version="1.0" encoding="utf-8"?>
<!-- Generator: Adobe Illustrator 22.1.0, SVG Export Plug-In . SVG Version: 6.00 Build 0)  -->
<svg version="1.1" id="Слой_1" xmlns="http://www.w3.org/2000/svg" xmlns:xlink="http://www.w3.org/1999/xlink" x="0px" y="0px"
	 viewBox="0 0 346 63" style="enable-background:new 0 0 346 63;" xml:space="preserve">
<style type="text/css">
	.st0{fill:none;}
	.st1{font-family:'MyriadPro-Regular';}
	.st2{font-size:12px;}
	.st3{fill:#FFFFFF;}
	.st4{font-family:'Montserrat-Light';}
	.st5{font-size:25.9292px;}
	.st6{letter-spacing:5.1;}
	.st7{font-size:65.2574px;}
	.st8{letter-spacing:12.6;}
</style>
<rect x="118" y="14" class="st0" width="2.5" height="13.5"/>
<text transform="matrix(1 0 0 1 118 22.52)" class="st1 st2"> </text>
<g>
	<path class="st3" d="M71.4,41.2L62.9,45c-3.2,1.5-5.3,2.5-7.5,3.5v0.1c2.2,0.8,4.2,1.7,7.6,3.2l8.4,3.6v4.4l-19.3-9.1l-18.8,8.8
		v-4.5l8.9-3.9c2.5-1.1,4.4-1.9,6.5-2.7v-0.1c-2.3-0.8-4-1.6-6.5-2.7l-8.9-4.1v-4.4L51.8,46l19.6-9.3V41.2z"/>
	<path class="st3" d="M71.4,7.7l-8.4,3.8c-3.2,1.5-5.3,2.5-7.5,3.5v0.1c2.2,0.8,4.2,1.7,7.6,3.2l8.4,3.6v4.4l-19.3-9.1l-18.8,8.8
		v-4.5l8.9-3.9c2.5-1.1,4.4-1.9,6.5-2.7v-0.1c-2.3-0.8-4-1.6-6.5-2.7l-8.9-4.1V3.5l18.6,9.1l19.6-9.3V7.7z"/>
</g>
<text transform="matrix(1.1801 0 0 1 108.0063 24.7021)"><tspan x="0" y="0" class="st3 st4 st5 st6">ХА-ХА</tspan><tspan x="0" y="31.1" class="st3 st4 st5 st6">ТОН</tspan></text>
<text transform="matrix(0.7935 0 0 1 253.5 49.4678)" class="st3 st4 st7 st8">)</text>
</svg>
