<svg width="56" height="56" fill="none" xmlns="http://www.w3.org/2000/svg"><path d="M.832 4.145V1.197L0 1.566V.553l.924-.46h.924v4.052H.832zm7.577 0V1.197l-.831.369V.553l.924-.46h.924v4.052H8.409zM.832 11.513V8.566L0 8.934V7.921l.924-.46h.924v4.052H.832zm7.577 0V8.566l-.831.368V7.921l.924-.46h.924v4.052H8.409zm15.34 0c-.37 0-.74-.092-1.016-.276-.278-.184-.462-.46-.647-.737a3.302 3.302 0 01-.185-1.013c0-.369.092-.645.185-1.013.185-.277.37-.553.647-.83.277-.183.646-.276 1.016-.276s.647.093 1.017.277c.277.184.462.46.647.829.092.276.184.644.184 1.013 0 .368-.092.645-.184 1.013-.185.276-.37.553-.647.829-.37.184-.647.276-1.017.184zm.555-1.197c.092-.277.184-.553.184-.83 0-.275-.092-.552-.184-.828-.093-.092-.093-.184-.185-.276-.093-.093-.185-.093-.37-.093a.7.7 0 00-.37.093c-.092.092-.184.184-.184.276-.093.276-.185.553-.185.829 0 .276.092.553.185.829.092.092.092.184.184.276.093.092.185.092.37.092.093 0 .185 0 .277-.092l.278-.276zm-8.225-6.171V1.197l-.832.369V.553l.925-.46h.924v4.052h-1.017zm7.485 0V1.197l-.831.369V.553l.924-.46h.924v4.052h-1.017zm7.763.092c-.37 0-.647-.092-1.017-.276-.277-.185-.462-.461-.647-.83-.092-.368-.184-.644-.184-1.013 0-.368.092-.644.184-1.013.185-.276.37-.552.647-.829.277-.184.647-.276 1.017-.276.37 0 .739.092 1.016.276.277.185.462.46.647.83.093.276.185.644.185 1.012 0 .369-.092.645-.185 1.014-.185.276-.37.552-.647.829-.277.092-.647.184-1.016.276zm.554-1.382c.093-.276.185-.552.185-.829 0-.276-.092-.552-.185-.829-.092-.092-.092-.184-.185-.276C31.604.83 31.512.83 31.42.83c-.092 0-.185 0-.277.092l-.37.368c-.092.277-.184.553-.184.83 0 .276.092.552.184.828.093.092.185.092.277.185.093.092.185.092.278.092.092 0 .185 0 .37-.092.092 0 .092-.093.184-.277zm6.654 1.29V1.197l-.832.369V.553l.924-.46h.924v4.052h-1.016zm7.67 0V1.197l-.832.369V.553l.924-.46h.924v4.052h-1.016zM31.05 11.513V8.566l-.832.368V7.921l.924-.46h.924v4.052h-1.017zm-14.97 0V8.566l-.832.368V7.921l.924-.46h.924v4.052h-1.017zm22.917 0c-.37 0-.74-.092-1.017-.276-.277-.184-.462-.46-.647-.737a3.302 3.302 0 01-.184-1.013c0-.369.092-.645.184-1.013.185-.277.37-.553.647-.83.277-.183.647-.276 1.017-.276.37 0 .647.093 1.016.277.277.184.462.46.647.829.093.276.185.644.185 1.013 0 .368-.093.645-.185 1.013-.185.276-.37.553-.647.829-.277.184-.647.276-1.016.184zm.554-1.197c.093-.277.185-.553.185-.83 0-.275-.092-.552-.185-.828-.092-.092-.092-.184-.185-.276-.092-.093-.184-.093-.277-.093-.092 0-.185 0-.37.093-.092.092-.184.184-.184.276-.093.276-.185.553-.185.829 0 .276.092.553.185.829.092.092.092.184.184.276.093.092.185.092.37.092.093 0 .185 0 .277-.092.093-.092.185-.184.185-.276zm6.838 1.197c-.37 0-.739-.092-1.016-.276-.277-.184-.462-.46-.647-.737a3.302 3.302 0 01-.185-1.013c0-.369.093-.645.185-1.013.185-.277.37-.553.647-.83.277-.183.647-.276 1.016-.276.37 0 .647.093 1.017.277.277.184.462.46.647.829.092.276.185.644.185 1.013 0 .368-.093.645-.185 1.013-.185.276-.37.553-.647.829a1.289 1.289 0 01-1.017.184zm.555-1.197c.185-.277.185-.553.185-.83 0-.275-.093-.552-.185-.828-.093-.092-.093-.184-.185-.276-.092-.093-.185-.093-.37-.093-.092 0-.184 0-.277.093-.092.092-.185.184-.185.276-.184.276-.184.553-.184.829 0 .276.092.553.184.829.093.092.093.184.185.276.093.092.185.092.277.092.093 0 .185 0 .278-.092.184-.092.184-.184.277-.276zm-15.987 8.566c-.37 0-.647-.093-1.016-.277-.278-.184-.462-.46-.647-.829a3.301 3.301 0 01-.185-1.013c0-.368.092-.645.185-1.013.184-.276.37-.553.647-.829.277-.184.646-.276.924-.276.37 0 .739.092 1.016.276.277.184.462.46.647.737.093.276.185.645.185 1.013 0 .369-.093.645-.185 1.013-.185.276-.37.553-.647.83-.185.276-.554.368-.924.368zm.555-1.29c.184-.276.184-.552.184-.829 0-.276-.092-.553-.184-.829-.093-.092-.093-.184-.185-.276-.093-.092-.185-.092-.37-.092-.092 0-.185 0-.277.092-.093.092-.185.184-.185.276-.092.277-.185.553-.185.83 0 .276.093.552.185.828.092.092.092.184.185.276.092.093.185.093.277.093.092 0 .185 0 .37-.093.092-.092.185-.184.185-.276zm-7.855 1.29v-2.948l-.832.369v-1.014l.924-.46h.924v4.053h-1.016zm.185 14.92c-.37 0-.74-.091-1.017-.276-.277-.184-.462-.46-.647-.737a3.302 3.302 0 01-.185-1.013c0-.368.093-.644.185-1.013.185-.276.37-.553.647-.829.277-.184.647-.276 1.017-.276.37 0 .646.092 1.016.276.277.184.462.46.647.83.092.276.185.644.185 1.012 0 .369-.093.645-.185 1.013-.185.277-.37.553-.647.83-.37.092-.74.184-1.016.184zm.554-1.289c.092-.276.185-.552.185-.829 0-.276-.093-.552-.185-.829-.092-.092-.092-.184-.185-.276-.092-.092-.185-.092-.277-.092-.092 0-.185 0-.277.092-.093.092-.185.184-.185.276-.093.277-.185.553-.185.83 0 .276.093.552.185.828.092.092.092.184.185.276.092.093.185.093.277.093.092 0 .185 0 .277-.093 0-.092.093-.184.185-.276zm-8.317 1.198v-2.948l-.832.369v-1.014l.925-.46h.924v4.053h-1.017zm-7.67 0v-2.948l-.831.369v-1.014l.924-.46h.924v4.053H8.409zm15.433 14.828c-.37 0-.74-.092-1.017-.276-.277-.184-.462-.46-.647-.737a3.301 3.301 0 01-.185-1.013c0-.368.093-.645.185-1.013.185-.276.37-.553.647-.829.277-.184.647-.276 1.017-.276.37 0 .646.092 1.016.276.277.184.462.46.647.829.092.276.185.645.185 1.013 0 .369-.093.645-.185 1.013-.185.277-.37.553-.647.83-.37.091-.74.183-1.016.183zm.554-1.289c.092-.276.185-.553.185-.829 0-.276-.093-.553-.185-.829-.092-.092-.092-.184-.185-.276-.092-.092-.185-.092-.277-.092-.092 0-.185 0-.277.092-.093.092-.185.184-.185.276-.093.276-.185.553-.185.83 0 .275.093.552.185.828.092.092.092.184.185.276.092.092.185.092.277.092.092 0 .185 0 .277-.092 0-.092.093-.184.185-.276zm29.756 1.29c-.37 0-.74-.093-1.017-.277-.277-.184-.462-.46-.647-.737a3.301 3.301 0 01-.184-1.013c0-.368.092-.645.184-1.013.185-.276.37-.553.647-.829.278-.184.647-.276 1.017-.276.37 0 .647.092 1.016.276.278.184.462.46.647.829.185.276.185.645.185 1.013 0 .369-.092.645-.185 1.013-.185.277-.37.553-.647.83a3.331 3.331 0 01-1.016.183zm.554-1.29c.093-.276.185-.553.185-.829 0-.276-.092-.553-.185-.829-.092-.092-.092-.184-.184-.276-.093-.092-.185-.092-.278-.092-.092 0-.185 0-.277.092-.092.092-.185.184-.185.276-.092.276-.185.553-.185.83 0 .275.093.552.185.828.093.092.093.184.185.276.092.092.185.092.277.092.093 0 .185 0 .278-.092.092-.092.092-.184.184-.276zm-23.564-6.079c-.37 0-.647-.092-1.017-.276-.277-.184-.462-.46-.646-.737a3.298 3.298 0 01-.185-1.013c0-.369.092-.645.185-1.013.184-.277.37-.553.646-.83.278-.184.647-.276 1.017-.276.37 0 .74.092 1.016.277.278.184.462.46.647.829.093.276.185.644.185 1.013 0 .368-.092.644-.185 1.013-.184.276-.37.553-.647.829a3.331 3.331 0 01-1.016.184zm.554-1.29c.185-.184.185-.46.185-.828 0-.277-.092-.553-.185-.83-.092-.091-.092-.184-.184-.276-.093-.092-.185-.092-.37-.092-.093 0-.185 0-.277.092-.093.092-.185.185-.185.277-.185.276-.185.552-.185.829 0 .276.092.552.185.829.092.092.092.184.185.276.092.092.184.092.277.092.092 0 .185 0 .37-.092.092-.092.184-.184.184-.276zM16.08 48.448V45.5l-.832.368v-1.013l.925-.46h.924v4.052H16.08zm-7.67 0V45.5l-.831.368v-1.013l.924-.46h.924v4.052H8.409zM23.842 56c-.37 0-.74-.092-1.017-.276-.277-.184-.462-.46-.647-.737a3.301 3.301 0 01-.185-1.013c0-.369.093-.645.185-1.013.185-.277.37-.553.647-.83.277-.184.647-.276 1.017-.276.37 0 .646.092 1.016.277.277.184.462.46.647.736.092.277.185.645.185 1.014 0 .368-.093.644-.185 1.013-.185.276-.37.552-.647.829-.37.184-.74.276-1.016.276zm.554-1.29c.185-.276.185-.552.185-.828 0-.277-.093-.553-.185-.83-.092-.091-.092-.184-.185-.276-.092-.092-.185-.092-.37-.092-.092 0-.184 0-.277.092-.092.092-.184.184-.184.277-.185.276-.185.552-.185.829 0 .276.092.552.184.829.093.092.093.184.185.276.093.092.185.092.278.092.092 0 .184 0 .37-.092 0-.092.092-.184.184-.276zm6.653 1.198V52.96l-.831.368v-1.013l.924-.46h.924v4.052h-1.017zm-14.97 0V52.96l-.832.46v-1.013l.925-.46h.924V56h-1.017v-.092zm-7.67 0V52.96l-.831.368v-1.013l.924-.46h.924v4.052H8.409zm30.126-37.026v-2.948l-.832.369v-1.014l.924-.46h.924v4.053h-1.016zm7.854 0c-.37 0-.739-.093-1.016-.277-.277-.184-.462-.46-.647-.829a3.301 3.301 0 01-.185-1.013c0-.368.093-.645.185-1.013.185-.276.37-.553.647-.829.277-.184.647-.276 1.016-.276.37 0 .647.092 1.017.276.277.184.462.46.647.737.092.276.185.645.185 1.013 0 .369-.093.645-.185 1.013-.185.276-.37.553-.647.83-.277.276-.647.368-1.017.368zm.555-1.29c.185-.276.185-.552.185-.829 0-.276-.093-.553-.185-.829-.093-.092-.093-.184-.185-.276-.092-.092-.185-.092-.37-.092-.092 0-.184 0-.277.092-.092.092-.185.184-.185.276-.184.277-.184.553-.184.83 0 .276.092.552.184.828.093.092.093.184.185.276.093.093.185.093.277.093.093 0 .185 0 .37-.093.093-.092.093-.184.185-.276zm7.208-6.079c-.37 0-.647-.092-1.017-.276-.277-.184-.462-.46-.647-.737a3.302 3.302 0 01-.184-1.013c0-.369.092-.645.184-1.013.185-.277.37-.553.647-.83.278-.183.647-.276 1.017-.276.37 0 .647.093 1.016.277.278.184.462.46.647.829.185.276.185.644.185 1.013 0 .368-.092.645-.185 1.013-.185.276-.37.553-.647.829-.277.184-.646.276-1.016.184zm.554-1.197c.093-.277.185-.553.185-.83 0-.275-.092-.552-.185-.828-.092-.092-.092-.184-.184-.276-.093-.093-.185-.093-.37-.093-.093 0-.185 0-.37.093-.092.092-.185.184-.185.276-.184.276-.184.553-.184.829 0 .276.092.553.184.829.093.092.093.184.185.276.093.092.185.092.37.092.092 0 .185 0 .37-.092.092-.092.184-.184.184-.276zm-.554 8.566c-.37 0-.74-.093-1.017-.277-.277-.184-.462-.46-.647-.829a3.301 3.301 0 01-.184-1.013c0-.368.092-.645.184-1.013.185-.276.37-.553.647-.829.278-.184.647-.276 1.017-.276.37 0 .647.092 1.016.276.278.184.462.46.647.737.093.276.185.645.185 1.013 0 .369-.092.645-.185 1.013-.185.276-.37.553-.647.83-.277.276-.646.368-1.016.368zm.554-1.29c.093-.276.185-.552.185-.829 0-.276-.092-.553-.185-.829-.092-.092-.092-.184-.184-.276-.093-.092-.185-.092-.37-.092a.7.7 0 00-.37.092c-.185.092-.185.184-.185.276-.184.277-.184.553-.184.83 0 .276.092.552.184.828.093.092.093.184.185.276.093.093.185.093.37.093.092 0 .185 0 .37-.093.092-.092.184-.184.184-.276zm-.554 8.658c-.37 0-.74-.092-1.017-.276-.277-.184-.462-.46-.647-.83a3.301 3.301 0 01-.184-1.012c0-.369.092-.645.184-1.014.185-.276.37-.552.647-.828.278-.185.647-.277 1.017-.277.37 0 .647.092 1.016.276.278.185.462.461.647.737.093.277.185.645.185 1.014 0 .368-.092.644-.185 1.013-.185.276-.37.552-.647.829-.277.276-.646.368-1.016.368zm.554-1.29c.093-.276.185-.552.185-.828 0-.277-.092-.553-.185-.83-.092-.091-.092-.184-.184-.276-.093-.092-.185-.092-.37-.092-.093 0-.185 0-.37.092s-.185.184-.185.277c-.184.276-.184.552-.184.829 0 .276.092.552.184.828.093.093.093.185.185.277.093.092.185.092.37.092.092 0 .185 0 .37-.092.092-.092.184-.184.184-.276zm-.554 8.843c-.37 0-.74-.092-1.017-.277-.277-.184-.462-.46-.647-.737a3.302 3.302 0 01-.184-1.013c0-.368.092-.644.184-1.013.185-.276.37-.553.647-.829.278-.184.647-.276 1.017-.276.37 0 .647.092 1.016.276.278.184.462.46.647.83.185.276.185.644.185 1.012 0 .369-.092.645-.185 1.013-.185.277-.37.553-.647.83a3.331 3.331 0 01-1.016.184zm.554-1.29c.093-.276.185-.552.185-.829 0-.276-.092-.552-.185-.829-.092-.092-.092-.184-.184-.276-.093-.092-.185-.092-.278-.092-.092 0-.185 0-.277.092-.092.092-.185.184-.185.276-.092.277-.185.553-.185.83 0 .276.093.552.185.828.093.092.093.184.185.276.092.093.185.093.277.093.093 0 .185 0 .278-.093.092-.092.092-.184.184-.276zm-.831-28.276c-.37 0-.647-.092-1.017-.276-.277-.185-.462-.461-.647-.83-.092-.368-.185-.644-.185-1.013 0-.368.093-.644.185-1.013.185-.276.37-.552.647-.829.277-.184.647-.276 1.017-.276.37 0 .739.092 1.016.276.277.185.462.46.647.83.092.276.185.644.185 1.012 0 .369-.093.645-.185 1.014-.185.276-.37.552-.647.829-.277.092-.647.184-1.016.276zm.554-1.382c.093-.276.185-.552.185-.829 0-.276-.092-.552-.185-.829-.092-.092-.092-.184-.185-.276C54.152.83 54.06.83 53.967.83c-.092 0-.185 0-.277.092-.093.092-.185.184-.185.276-.277.369-.37.645-.37.921 0 .277.093.553.185.83.093.091.185.184.277.184.093.092.185.092.278.092.092 0 .184 0 .277-.092.185 0 .277-.093.277-.277zM.832 18.882v-2.948L0 16.303v-1.014l.924-.46h.924v4.053H.832zm7.577 0v-2.948l-.831.369v-1.014l.924-.46h.924v4.053H8.409zm7.67 0v-2.948l-.832.369v-1.014l.925-.46h.924v4.053h-1.017zM.832 26.158V23.21L0 23.58v-1.013l.924-.46h.924v4.052H.832zm0 7.553v-2.948L0 31.132v-1.014l.924-.46h.924v4.053H.832zm7.577-7.553V23.21l-.831.369v-1.013l.924-.46h.924v4.052H8.409zm7.67 0V23.21l-.832.461v-1.013l.925-.46h.924v3.96h-1.017zM.832 41.078v-2.946L0 38.5v-1.013l.924-.46h.924v4.052H.832zm0 7.37V45.5L0 45.868v-1.013l.924-.46h.924v4.052H.832zm0 7.46V52.96L0 53.329v-1.013l.924-.46h.924v4.052H.832zM39.459 56c-.37 0-.74-.092-1.017-.276-.277-.184-.462-.46-.647-.737a3.301 3.301 0 01-.184-1.013c0-.369.092-.645.184-1.013.185-.277.37-.553.647-.83.277-.184.647-.276 1.017-.276.37 0 .647.092 1.016.277.277.184.462.46.647.736.093.277.185.645.185 1.014 0 .368-.093.644-.185 1.013-.185.276-.37.552-.647.829-.37.184-.739.276-1.016.276zm.554-1.29c.093-.276.185-.552.185-.828 0-.277-.092-.553-.185-.83-.092-.091-.092-.184-.185-.276-.092-.092-.184-.092-.277-.092-.092 0-.185 0-.37.092-.092.092-.184.184-.184.277-.185.276-.185.552-.185.829 0 .276.092.552.185.829.092.092.092.184.184.276.093.092.185.092.37.092.093 0 .185 0 .277-.092 0-.092.093-.184.185-.276zM46.76 56c-.37 0-.647-.092-1.016-.276-.278-.184-.462-.46-.647-.737a3.301 3.301 0 01-.185-1.013c0-.369.092-.645.185-1.013.185-.277.37-.553.647-.83.277-.184.646-.276 1.016-.276s.647.092 1.017.277c.277.184.462.46.646.736.185.277.185.645.185 1.014 0 .368-.092.644-.185 1.013-.184.276-.37.552-.646.829-.278.184-.647.276-1.017.276zm.554-1.29c.093-.276.185-.552.185-.828 0-.277-.092-.553-.184-.83-.093-.091-.093-.184-.185-.276-.093-.092-.185-.092-.37-.092-.092 0-.185 0-.37.092-.092.092-.184.184-.184.277-.185.276-.185.552-.185.829 0 .276.092.552.185.829.092.092.092.184.184.276.093.092.185.092.37.092.093 0 .185 0 .37-.092.092-.092.184-.184.184-.276zm-8.778-6.263V45.5l-.832.368v-1.013l.924-.46h.924v4.052h-1.016zm-7.485 0V45.5l-.832.368v-1.013l.924-.46h.924v4.052H31.05zm15.155 0V45.5l-.832.368v-1.013l.924-.46h.924v4.052h-1.016zm7.392 7.46v-2.946l-.831.368v-1.013l.924-.46h.924v4.052h-1.017zm-14.97-14.736c-.37 0-.74-.092-1.016-.276-.278-.184-.462-.46-.647-.737a3.301 3.301 0 01-.185-1.013c0-.369.092-.645.185-1.013.184-.277.37-.553.647-.83.277-.184.646-.276 1.016-.276s.647.092 1.017.277c.277.184.462.46.646.829.093.276.185.644.185 1.013 0 .368-.092.644-.185 1.013-.184.276-.37.553-.646.829-.37.092-.647.184-1.017.184zm.554-1.29c.093-.276.185-.552.185-.828 0-.277-.092-.553-.184-.83-.093-.091-.093-.184-.185-.276-.093-.092-.185-.092-.278-.092-.092 0-.184 0-.37.092-.092.092-.184.185-.184.277-.185.276-.185.552-.185.829 0 .276.093.552.185.829.092.092.092.184.185.276.092.092.185.092.37.092.092 0 .184 0 .277-.092 0-.092.092-.184.184-.276zm7.024 1.198v-2.947l-.832.368v-1.013l.924-.46h.924v4.052h-1.016zm-7.67-7.368v-2.948l-.832.369v-1.014l.924-.46h.924v4.053h-1.016zm-7.485 0v-2.948l-.832.369v-1.014l.924-.46h.924v4.053H31.05zm15.155 0v-2.948l-.832.369v-1.014l.924-.46h.924v4.053h-1.016zm-7.208-7.461c-.37 0-.74-.092-1.017-.276-.277-.184-.462-.46-.647-.83a3.301 3.301 0 01-.184-1.012c0-.369.092-.645.184-1.014.185-.276.37-.552.647-.828.277-.185.647-.277 1.017-.277.37 0 .647.092 1.016.276.277.185.462.461.647.737.093.277.185.645.185 1.014 0 .368-.093.644-.185 1.013-.185.276-.37.552-.647.829-.277.276-.647.368-1.016.368zm.554-1.29c.093-.276.185-.552.185-.828 0-.277-.092-.553-.185-.83-.092-.091-.092-.184-.185-.276-.092-.092-.184-.092-.277-.092-.092 0-.185 0-.37.092-.092.092-.184.184-.184.277-.093.276-.185.552-.185.829 0 .276.092.552.185.828 0 .093.092.185.184.185.093.092.185.092.185.092h.277c.093 0 .185 0 .278-.092 0 0 .092-.092.092-.184zm6.838 1.29c-.37 0-.739-.092-1.016-.276-.277-.184-.462-.46-.647-.83a3.301 3.301 0 01-.185-1.012c0-.369.093-.645.185-1.014.185-.276.37-.552.647-.828.277-.185.647-.277 1.016-.277.37 0 .647.092 1.017.276.277.185.462.461.647.737.185.277.185.645.185 1.014 0 .368-.093.644-.185 1.013-.185.276-.37.552-.647.829-.37.276-.647.368-1.017.368zm.555-1.29c.092-.276.185-.552.185-.828 0-.277-.093-.553-.185-.83-.093-.091-.093-.184-.185-.276-.092-.092-.185-.092-.37-.092-.092 0-.184 0-.37.092-.092.092-.184.184-.184.277-.185.276-.185.552-.185.829 0 .276.093.552.185.828.092.093.092.185.185.277.092.092.185.092.37.092.092 0 .184 0 .37-.092.184-.092.092-.184.184-.276zm-24.211 1.198V23.21l-.832.369v-1.013l.924-.46h.924v4.052h-1.016zm8.316.092c-.37 0-.739-.092-1.016-.276-.277-.184-.462-.46-.647-.83a3.301 3.301 0 01-.185-1.012c0-.369.093-.645.185-1.014.093-.368.37-.552.647-.828.277-.185.647-.277 1.016-.277.37 0 .647.092 1.017.276.277.185.462.461.647.737.092.277.185.645.185 1.014 0 .368-.093.644-.185 1.013-.185.276-.37.552-.647.829-.277.276-.647.368-1.017.368zm.555-1.29c.092-.276.185-.552.185-.828 0-.277-.093-.553-.185-.83-.092-.091-.092-.184-.185-.276-.092-.092-.185-.092-.37-.092-.092 0-.184 0-.277.092-.092.092-.184.184-.184.277-.185.276-.185.552-.185.829 0 .276.092.552.184.828.093.093.093.185.185.277.093.092.185.092.277.092.093 0 .185 0 .37-.092.093-.092.185-.184.185-.276zm22.27 16.211c-.369 0-.646-.092-1.016-.276-.277-.184-.462-.46-.647-.737a3.301 3.301 0 01-.185-1.013c0-.369.093-.645.185-1.013.185-.277.37-.553.647-.83.277-.184.647-.276 1.017-.276.37 0 .739.092 1.016.277.277.184.462.46.647.829.092.276.185.644.185 1.013 0 .368-.093.644-.185 1.013-.092.368-.37.553-.647.829a3.332 3.332 0 01-1.016.184zm.555-1.29c.093-.276.185-.552.185-.828 0-.277-.092-.553-.185-.83-.092-.091-.092-.184-.185-.276-.092-.092-.185-.092-.37-.092-.092 0-.184 0-.369.092-.093.092-.185.185-.185.277-.092.276-.185.552-.185.829 0 .276.093.552.185.829.093.092.093.184.185.276.092.092.185.092.37.092.092 0 .184 0 .37-.092.092-.092.184-.184.184-.276zM8.409 41.08v-2.947l-.831.368v-1.013l.924-.46h.924v4.052H8.409zm7.67 0v-2.947l-.832.368v-1.013l.925-.46h.924v4.052h-1.017zm7.67.092c-.37 0-.74-.092-1.016-.276-.278-.184-.462-.46-.647-.737a3.301 3.301 0 01-.185-1.013c0-.369.092-.645.185-1.013.185-.277.37-.553.647-.83.277-.184.646-.276 1.016-.276s.647.092 1.017.277c.277.184.462.46.647.736.092.277.184.645.184 1.014 0 .368-.092.644-.184 1.013-.185.276-.37.552-.647.829-.37.184-.647.276-1.017.276zm.555-1.29c.092-.276.184-.552.184-.828 0-.277-.092-.553-.184-.83-.093-.091-.093-.184-.185-.276-.093-.092-.185-.092-.37-.092-.092 0-.185 0-.37.092-.092.092-.184.185-.184.277-.093.276-.185.552-.185.829 0 .276.092.552.185.829 0 .092.092.184.184.184a.287.287 0 00.185.092h.278c.092 0 .184 0 .277-.092l.185-.184z" fill="#fff"/></svg>